<svg width="178" height="128" viewBox="0 0 178 128" fill="none" xmlns="http://www.w3.org/2000/svg">
<path d="M86.8805 126.616C70.476 126.616 54.0716 126.616 37.6671 126.616C33.9476 126.616 33.5794 126.187 33.5339 122.444C33.4015 110.628 38.2545 101.446 48.7054 95.8511C53.6206 93.2166 59.1646 91.6911 64.5348 90.0048C65.474 89.708 67.0214 91.0026 68.1674 91.7447C71.1463 93.6742 73.8397 96.1851 77.0337 97.6157C87.1288 102.13 96.1978 99.6359 104.352 92.7424C105.139 92.0786 105.751 91.1634 106.616 90.6521C107.377 90.2027 108.527 89.7368 109.243 89.9966C114.795 91.9921 120.637 93.5382 125.718 96.4077C136.413 102.448 140.62 112.26 139.946 124.303C139.871 125.66 139.11 126.451 137.741 126.579C137.058 126.645 136.363 126.62 135.676 126.62C119.408 126.62 103.144 126.62 86.8764 126.62L86.8805 126.616ZM86.8805 121.764C102.106 121.764 117.335 121.764 132.561 121.764C135.254 121.764 135.424 121.66 135.101 118.948C134.232 111.712 131.183 105.495 124.907 101.644C120.815 99.1329 116.02 97.76 111.572 95.8057C109.748 95.0059 108.49 95.5007 107.013 96.7911C100.993 102.04 93.9678 104.95 85.8876 104.711C78.2128 104.489 71.6221 101.409 65.9581 96.3458C64.8203 95.3316 63.8729 95.1007 62.4662 95.6573C59.8514 96.6963 57.1373 97.492 54.5101 98.498C45.106 102.097 39.7481 108.888 38.5483 118.869C38.2091 121.685 38.329 121.759 41.2045 121.759C56.4298 121.759 71.6593 121.759 86.8847 121.759L86.8805 121.764Z" fill="white"/>
<path d="M145.116 19.2342C141.801 19.2111 139.064 16.4031 139.11 13.0564C139.152 9.64059 141.828 6.92097 145.204 7.00175C149.046 7.09407 151.107 9.65981 151.332 13.0372C151.554 16.3453 148.454 19.2573 145.116 19.2342ZM145.001 15.6529C146.538 15.6568 147.766 14.5374 147.785 13.3142C147.804 12.0602 146.477 10.7253 145.2 10.7176C143.939 10.7061 142.528 12.0794 142.673 13.318C142.845 14.7682 143.705 15.6068 145.001 15.6568V15.6529Z" fill="white" fill-opacity="0.5"/>
<path d="M142.951 56.7354C141.28 56.3496 139.895 56.0261 138.4 55.6793V60.4687C135.953 59.8802 133.541 59.3503 131.178 58.6449C130.953 58.5787 130.877 57.3667 131.041 56.7744C131.14 56.4158 131.84 55.9794 132.247 56.0066C133.24 56.0729 134.218 56.3847 135.394 56.638C135.306 55.087 135.223 53.649 135.124 51.9031C136.699 52.2656 138.016 52.5695 139.583 52.932C139.461 51.4589 139.355 50.1612 139.229 48.6725C140.824 48.8752 142.285 49.0661 144.039 49.2883C143.868 48.049 143.727 46.993 143.575 45.9369C143.438 44.9977 143.537 44.3118 144.716 44.1793C145.763 44.0624 146.208 44.3742 146.33 45.4653C146.573 47.71 146.919 49.943 147.266 52.4877C145.641 52.2967 144.18 52.1214 142.452 51.9187C142.612 53.4619 142.764 54.9389 142.954 56.7393L142.951 56.7354Z" fill="white" fill-opacity="0.5"/>
<path d="M58.3288 5.95008C57.9025 4.19477 57.5371 2.7053 57.1184 0.981261C58.1042 0.676329 59.0406 0.38703 60.3005 0C61.1797 3.10406 62.0286 6.10257 62.9687 9.41774C60.9209 9.57411 59.2043 9.70702 57.4305 9.84385C57.3582 11.2395 57.5561 12.643 57.107 13.7767C56.9129 14.2693 55.4018 14.2146 54.0657 14.4999C53.7079 11.6226 53.373 8.92904 53 5.95008H58.3326H58.3288Z" fill="white" fill-opacity="0.5"/>
<path d="M3.81095 106.355C4.58947 106.94 5.2395 107.427 6.04069 108.029C6.47153 107.035 6.86834 106.123 7.33696 105.043C8.10792 105.565 8.81842 106.048 9.63095 106.598C9.94084 105.801 10.2129 105.094 10.572 104.17C11.4374 104.642 12.2348 105.074 13.2401 105.62C13.4782 104.948 13.5991 104.225 13.9695 103.695C14.2302 103.326 14.8311 103.07 15.2846 103.062C15.4812 103.062 15.9233 103.86 15.8515 104.202C15.5265 105.777 15.0579 107.321 14.5704 109.144C13.4819 108.504 12.643 108.009 11.7813 107.502C11.4412 108.417 11.1313 109.258 10.7156 110.382C9.81235 109.714 9.07161 109.172 8.17215 108.508C7.76022 109.376 7.35963 110.217 6.88345 111.219C5.48514 110.095 4.16241 109.026 2.71875 107.864C3.13446 107.286 3.45192 106.85 3.81095 106.351V106.355Z" fill="white" fill-opacity="0.5"/>
<path d="M150.721 118.004C151.755 119.122 152.76 120.206 153.891 121.426C153.066 122.139 152.344 122.764 151.42 123.568C152.175 124.159 152.845 124.686 153.622 125.296C153.077 125.978 152.712 126.437 152.212 127.062C150.769 125.789 149.451 124.622 148 123.34C148.946 122.537 149.723 121.874 150.57 121.157C149.911 120.119 148.317 119.095 150.721 118V118.004Z" fill="white" fill-opacity="0.5"/>
<path d="M0.0104833 51.7878C0.0104833 46.1456 0.00280654 40.5073 0.0143273 34.8651C0.0220077 32.084 1.0243 31.0529 3.79696 31.0377C8.916 31.0111 14.0312 30.9959 19.1503 31.0682C19.8914 31.0796 20.8131 31.3992 21.3392 31.9014C24.565 34.9754 27.7255 38.118 30.8361 41.3062C31.3046 41.7894 31.6349 42.6226 31.6387 43.2998C31.7078 51.8562 31.727 60.4089 31.7155 68.9653C31.7155 71.5106 30.118 73.1161 27.5105 73.1275C19.7071 73.1693 11.9037 73.1617 4.09651 73.1275C1.50434 73.1161 0.025848 71.5676 0.0143273 68.893C-0.0125544 63.19 0.00663928 57.487 0.00663928 51.7801L0.0104833 51.7878ZM18.4974 33.0579C13.6971 33.0579 9.11568 33.0541 4.53428 33.0579C2.14565 33.0579 2.07269 33.1302 2.07269 35.5347C2.06885 46.3016 2.06885 57.0647 2.07269 67.8316C2.07269 70.666 2.3799 70.9893 5.2524 70.997C12.3492 71.0122 19.4421 71.0122 26.5389 71.0008C28.9352 71.0008 29.3576 70.5861 29.3614 68.2501C29.373 61.5388 29.3614 54.8238 29.3614 48.1126C29.3614 46.8076 29.3614 45.5026 29.3614 44.2243C29.1886 44.1444 29.0734 44.0455 28.962 44.0455C26.919 44.0189 24.8722 44.0227 22.8292 43.9808C19.7992 43.9199 18.532 42.6568 18.5089 39.6855C18.4936 37.5473 18.5089 35.4092 18.5089 33.0541L18.4974 33.0579ZM27.6526 41.797C25.3638 39.3773 23.1018 36.988 20.6172 34.3629C20.6172 36.5619 20.502 38.5023 20.694 40.4121C20.744 40.9219 21.7078 41.6753 22.3069 41.7323C24.1272 41.9073 25.9744 41.797 27.6487 41.797H27.6526Z" fill="white" fill-opacity="0.5"/>
<path d="M27.6367 41.8552C25.9157 41.8552 24.0214 41.969 22.1586 41.7885C21.5442 41.7296 20.5557 40.9526 20.5045 40.4268C20.3076 38.4569 20.4258 36.4596 20.4258 34.1875C22.9699 36.8951 25.2934 39.3595 27.6406 41.8552H27.6367Z" fill="white" fill-opacity="0.5"/>
<path d="M17.3588 63.1632C15.9114 63.1632 14.4601 63.2426 13.0279 63.1142C12.5845 63.0764 12.1943 62.4643 11.7812 62.113C12.1564 61.7201 12.5239 60.9985 12.9104 60.9872C15.9872 60.8965 19.0677 60.9003 22.1444 60.9985C22.5006 61.0098 23.0121 61.7352 23.1069 62.1999C23.1561 62.4417 22.4589 63.0839 22.0724 63.1104C20.5075 63.2162 18.9313 63.1557 17.3626 63.1557C17.3626 63.1557 17.3626 63.1595 17.3626 63.1632H17.3588Z" fill="white" fill-opacity="0.5"/>
<path d="M17.3144 58.6334C15.8358 58.6334 14.3494 58.6967 12.8785 58.5962C12.472 58.5664 11.7405 57.9855 11.783 57.7733C11.8759 57.3042 12.352 56.5595 12.7004 56.5446C15.8435 56.4069 18.9944 56.3585 22.1452 56.4106C22.5013 56.4181 23.1245 57.1999 23.1091 57.6058C23.0974 57.9595 22.3813 58.5515 21.9401 58.585C20.4072 58.7079 18.855 58.6334 17.3144 58.6334Z" fill="white" fill-opacity="0.5"/>
<path d="M11.9704 52.312H22.8821C23.4378 53.5711 22.974 54.1482 21.4946 54.1238C18.6891 54.0818 15.8798 54.0293 13.0742 54.0049C11.8056 53.9944 11.545 53.4277 11.9704 52.312Z" fill="white" fill-opacity="0.5"/>
<path d="M9.74218 54.125C10.3678 54.125 10.875 53.6178 10.875 52.9922C10.875 52.3665 10.3678 51.8594 9.74218 51.8594C9.11655 51.8594 8.60938 52.3665 8.60938 52.9922C8.60938 53.6178 9.11655 54.125 9.74218 54.125Z" fill="white" fill-opacity="0.5"/>
<path d="M9.74218 58.6558C10.3678 58.6558 10.875 58.1486 10.875 57.5229C10.875 56.8973 10.3678 56.3901 9.74218 56.3901C9.11655 56.3901 8.60938 56.8973 8.60938 57.5229C8.60938 58.1486 9.11655 58.6558 9.74218 58.6558Z" fill="white" fill-opacity="0.5"/>
<path d="M9.74218 63.1875C10.3678 63.1875 10.875 62.6803 10.875 62.0547C10.875 61.4291 10.3678 60.9219 9.74218 60.9219C9.11655 60.9219 8.60938 61.4291 8.60938 62.0547C8.60938 62.6803 9.11655 63.1875 9.74218 63.1875Z" fill="white" fill-opacity="0.5"/>
<path d="M162.005 83.0893C162.005 80.3488 162.001 77.6102 162.007 74.8698C162.011 73.5189 162.498 73.0181 163.844 73.0107C166.331 72.9978 168.815 72.9904 171.302 73.0255C171.662 73.0311 172.109 73.1863 172.365 73.4302C173.932 74.9233 175.467 76.4497 176.978 77.9983C177.205 78.233 177.366 78.6377 177.367 78.9666C177.401 83.1226 177.41 87.2767 177.405 91.4327C177.405 92.669 176.629 93.4488 175.362 93.4543C171.572 93.4747 167.782 93.471 163.99 93.4543C162.731 93.4488 162.013 92.6967 162.007 91.3976C161.994 88.6276 162.003 85.8575 162.003 83.0856L162.005 83.0893ZM170.984 73.992C168.653 73.992 166.428 73.9901 164.202 73.992C163.042 73.992 163.007 74.0271 163.007 75.195C163.005 80.4246 163.005 85.6524 163.007 90.882C163.007 92.2587 163.156 92.4158 164.551 92.4195C167.998 92.4269 171.443 92.4269 174.89 92.4214C176.054 92.4214 176.259 92.2199 176.261 91.0853C176.267 87.8256 176.261 84.564 176.261 81.3042C176.261 80.6704 176.261 80.0365 176.261 79.4156C176.177 79.3768 176.121 79.3288 176.067 79.3288C175.075 79.3159 174.081 79.3177 173.088 79.2974C171.617 79.2678 171.001 78.6543 170.99 77.2111C170.983 76.1725 170.99 75.134 170.99 73.9901L170.984 73.992ZM175.431 78.2367C174.32 77.0614 173.221 75.9009 172.014 74.6258C172.014 75.6939 171.958 76.6364 172.051 77.564C172.076 77.8116 172.544 78.1775 172.835 78.2053C173.719 78.2903 174.616 78.2367 175.429 78.2367H175.431Z" fill="white" fill-opacity="0.5"/>
<path d="M175.426 78.2648C174.59 78.2648 173.67 78.3201 172.765 78.2324C172.467 78.2039 171.986 77.8265 171.962 77.5711C171.866 76.6142 171.923 75.6441 171.923 74.5405C173.159 75.8557 174.288 77.0526 175.428 78.2648H175.426Z" fill="white" fill-opacity="0.5"/>
<path opacity="0.5" d="M170.436 88.6141C169.733 88.6141 169.028 88.6526 168.332 88.5902C168.117 88.5719 167.927 88.2746 167.727 88.1039C167.909 87.9131 168.087 87.5626 168.275 87.5571C169.769 87.5131 171.266 87.5149 172.76 87.5626C172.933 87.5681 173.182 87.9204 173.228 88.1461C173.251 88.2636 172.913 88.5755 172.725 88.5884C171.965 88.6398 171.199 88.6104 170.437 88.6104C170.437 88.6104 170.437 88.6122 170.437 88.6141H170.436Z" fill="white"/>
<path opacity="0.5" d="M170.414 86.4148C169.696 86.4148 168.974 86.4455 168.259 86.3967C168.062 86.3822 167.707 86.1001 167.727 85.997C167.773 85.7692 168.004 85.4075 168.173 85.4002C169.7 85.3333 171.23 85.3098 172.76 85.3351C172.933 85.3388 173.236 85.7185 173.229 85.9156C173.223 86.0874 172.875 86.375 172.661 86.3913C171.916 86.4509 171.162 86.4148 170.414 86.4148Z" fill="white"/>
<path opacity="0.5" d="M167.818 83.3438H173.118C173.388 83.9553 173.163 84.2356 172.444 84.2237C171.082 84.2034 169.717 84.1779 168.355 84.166C167.738 84.1609 167.612 83.8857 167.818 83.3438Z" fill="white"/>
<path opacity="0.5" d="M166.734 84.224C167.038 84.224 167.284 83.9776 167.284 83.6738C167.284 83.3699 167.038 83.1235 166.734 83.1235C166.43 83.1235 166.184 83.3699 166.184 83.6738C166.184 83.9776 166.43 84.224 166.734 84.224Z" fill="white"/>
<path opacity="0.5" d="M166.734 86.4256C167.038 86.4256 167.284 86.1793 167.284 85.8754C167.284 85.5715 167.038 85.3252 166.734 85.3252C166.43 85.3252 166.184 85.5715 166.184 85.8754C166.184 86.1793 166.43 86.4256 166.734 86.4256Z" fill="white"/>
<path opacity="0.5" d="M166.734 88.6258C167.038 88.6258 167.284 88.3795 167.284 88.0756C167.284 87.7717 167.038 87.5254 166.734 87.5254C166.43 87.5254 166.184 87.7717 166.184 88.0756C166.184 88.3795 166.43 88.6258 166.734 88.6258Z" fill="white"/>
<path d="M96.0511 53.0171C95.9253 56.9142 94.5561 60.1428 91.1276 62.3116C89.3695 63.4245 88.0461 64.7919 87.7143 67.0633C87.619 67.7242 86.2155 68.6282 85.4185 68.6244C84.7663 68.6244 83.687 67.5039 83.5574 66.748C83.1417 64.3361 84.2438 62.3154 85.9714 60.6669C86.7456 59.9263 87.5732 59.2008 88.4923 58.6576C91.1924 57.0661 91.7073 54.5707 91.4403 51.7865C91.2687 49.9709 89.7623 48.7061 87.9775 48.6263C85.9333 48.5389 84.4841 49.5075 83.9654 51.3269C83.8472 51.7485 83.7519 52.1815 83.6985 52.6145C83.5307 53.9705 82.6955 54.7226 81.4103 54.639C80.1403 54.5593 79.4119 53.7122 79.3089 52.3676C79.061 49.0251 81.7382 45.4471 85.243 44.4899C90.9941 42.9174 96.2838 47.0842 96.0511 53.0133V53.0171Z" fill="#EA881A"/>
<path d="M86.0937 78.5932C87.5953 78.5932 88.8125 77.376 88.8125 75.8745C88.8125 74.373 87.5953 73.1558 86.0937 73.1558C84.5922 73.1558 83.375 74.373 83.375 75.8745C83.375 77.376 84.5922 78.5932 86.0937 78.5932Z" fill="#EA881A"/>
<path d="M86.7203 93.5428C79.024 93.4012 73.3272 89.5385 69.0574 83.4822C67.1381 80.7604 65.9018 77.5523 64.3336 74.574C64.055 74.0457 63.7689 73.3221 63.3034 73.1231C59.7929 71.6262 58.5795 68.6019 58.1827 65.2063C57.6675 60.7809 58.0758 56.5315 61.5901 53.1742C62.0022 52.7799 62.0289 51.8918 62.0899 51.2218C62.7233 43.8716 65.7339 37.7886 71.5262 33.1526C83.4846 23.5744 101.147 27.3873 108.588 41.1268C110.355 44.3922 111.072 47.8989 111.377 51.551C111.435 52.2248 111.74 53.0287 112.205 53.4958C116.376 57.7068 116.719 66.8601 112.801 71.3468C112.511 71.6798 112.198 72.143 111.824 72.2349C109.084 72.8857 108.828 75.3856 107.947 77.3954C105.337 83.3406 101.521 88.1909 95.7024 91.2918C92.7911 92.8422 90.0743 93.539 86.7279 93.5466L86.7203 93.5428ZM62.2349 62.6873C62.5898 64.1995 62.7958 65.6542 63.3148 66.9902C63.5475 67.5913 64.4099 68.3454 64.9822 68.3416C66.7184 68.334 67.493 69.134 67.9242 70.7036C69.0422 74.7922 70.8584 78.5247 73.4378 81.928C80.7182 91.5253 93.4474 91.288 100.442 81.4494C102.8 78.1304 104.437 74.528 105.589 70.6615C105.932 69.5131 106.364 68.2842 107.771 68.4258C109.573 68.6096 110.343 67.6066 110.435 66.1978C110.591 63.7631 110.595 61.2862 110.305 58.8706C110.206 58.0667 109.122 57.1823 108.279 56.7115C107.104 56.0568 106.589 55.2185 106.692 53.9513C107.23 47.3247 104.856 41.8809 100.056 37.4096C92.8063 30.6566 80.2603 30.8442 73.102 37.735C68.6148 42.0532 66.4513 47.2596 66.7031 53.4804C66.768 55.0462 66.6764 56.4129 64.696 56.7995C64.2038 56.8952 63.6353 57.5805 63.4559 58.1126C62.9523 59.5941 62.6356 61.1369 62.2426 62.6797L62.2349 62.6873Z" fill="white"/>
</svg>
